<?xml version="1.0" encoding="UTF-8"?><svg id="Layer_1" xmlns="http://www.w3.org/2000/svg" viewBox="0 0 1111.8 284.04"><defs><style>.cls-1{fill:#61afcc;}</style></defs><g><path class="cls-1" d="M1048.09,26.48c-.15,.67-.41,1.33-.42,2-.05,2.48-.18,4.97,.01,7.43,.33,4.19-3.68,7.43-7.14,7.51-.72,.02-1.44,.01-2.16,.01-17.68,0-35.35,.02-53.03,0-36.14-.06-72.29-.13-108.43-.21-35.58-.08-71.17-.18-106.75-.26-36.06-.08-72.13-.14-108.19-.22-35.66-.08-71.33-.17-106.99-.27-4.31-.01-8.63-.2-12.94-.19-3.2,0-6.05,.99-7.65,4-.65,1.23-.85,2.7-1.21,4.06-.08,.3-.01,.64-.01,.96-.05,45.78-.08,91.56-.17,137.34-.05,27.88-.2,55.75-.31,83.63-.02,5.73-3.16,8.95-8.89,8.95-10.15,0-20.31-.1-30.46-.21-3.9-.05-7.1-3.33-7.2-7.22-.04-1.76,0-3.52,0-5.27,0-27.09-.02-54.17,0-81.26,.03-37.15,.08-74.3,.17-111.45,.02-8.22,.23-16.44,.3-24.66,.03-3.33-1.1-6.19-4.18-7.79-1.29-.66-2.87-1.03-4.33-1.04-10.32-.09-20.63-.02-30.95-.05-28.47-.07-56.93-.17-85.4-.25-1.94,0-3.87-.09-5.54-1.16-2.5-1.62-3.96-3.87-3.95-6.96,.02-8.47,.04-16.94,0-25.41-.02-5,3.86-8.52,8.65-8.46,16.07,.19,32.15,.06,48.23,.07,35.59,.03,71.18,.04,106.77,.11,36.14,.07,72.28,.22,108.42,.3,35.19,.08,70.37,.1,105.56,.17,36.46,.08,72.92,.22,109.38,.31,35.27,.08,70.53,.09,105.8,.18,31.26,.07,62.52,.21,93.78,.29,2.95,0,5.61,.64,7.45,3.06,.83,1.09,1.22,2.5,1.81,3.76V26.48Z"/><path class="cls-1" d="M1048.09,84.97c-.17,.25-.4,.49-.49,.76-.69,2.29-2.41,3.28-4.59,3.63-.94,.15-1.91,.09-2.87,.09-52.46,0-104.92,.02-157.37-.03-3.74,0-5.61,.28-5.57,5.53,.14,16.86,.05,33.71,.05,50.57,0,.64-.04,1.28,.02,1.92,.19,1.85,1.43,3.01,3.3,3.11,.72,.04,1.44,.01,2.16,.01,32.71,0,65.41,0,98.12,0,.8,0,1.6-.03,2.4,.02,3.29,.18,5.75,2.56,5.8,5.84,.08,5.59,.07,11.19,0,16.78-.04,3.19-2.34,5.55-5.51,5.87-.87,.09-1.76,.05-2.64,.05-32.79,0-65.57,.03-98.36-.03-3.55,0-5.34,.36-5.32,5.26,.08,30.04,.04,60.08,.03,90.12,0,1.03,.02,2.11-.27,3.08-.73,2.37-2.89,3.93-5.43,3.95-6.72,.04-13.43,.04-20.15,0-2.93-.02-5.12-1.93-5.66-4.86-.16-.86-.16-1.75-.16-2.62,0-68.55,0-137.09,0-205.64,0-.64-.03-1.28,.04-1.92,.33-3.06,2.37-5.12,5.42-5.47,.79-.09,1.6-.07,2.39-.07,62.29,0,124.59,0,186.88,0,.08,0,.16,0,.24,0,3.58-.35,6.18,.96,7.53,4.41v19.66Z"/><path class="cls-1" d="M0,140.96c0-43.23,0-86.45,0-129.68,0-.8-.03-1.6,.01-2.4C.26,3.97,3.58,.72,8.5,.67c4.72-.04,9.44-.01,14.16-.01,9.04,0,18.08,.11,27.11-.04,5.85-.1,10.54,1.96,14.35,6.34,2.15,2.47,4.43,4.82,6.7,7.18,6.3,6.57,12.64,13.11,18.94,19.67,5.14,5.35,10.27,10.73,15.4,16.09,6.9,7.21,13.8,14.42,20.69,21.63,6.9,7.21,13.81,14.41,20.69,21.64,3.91,4.1,7.77,8.25,11.67,12.35,2.56,2.69,6.36,2.63,8.92-.04,4.86-5.08,9.74-10.13,14.6-15.2,7.07-7.38,14.14-14.76,21.2-22.14,5.13-5.36,10.27-10.73,15.4-16.09,6.95-7.27,13.91-14.53,20.86-21.8,5.13-5.37,10.26-10.73,15.39-16.1,2.81-2.95,5.58-5.93,8.4-8.86,2.98-3.09,6.71-4.58,10.96-4.6,14.32-.05,28.63-.04,42.95,0,4.84,.01,8.1,3.15,8.45,7.98,.06,.8,.03,1.6,.03,2.4,0,86.69,0,173.38-.02,260.08,0,1.66-.1,3.38-.53,4.96-.89,3.25-3.72,5.37-7.1,5.39-10.48,.05-20.95,.05-31.43,0-3.85-.02-6.81-2.65-7.44-6.48-.22-1.33-.33-2.69-.33-4.04-.02-69.75-.01-139.51-.01-209.26,0-.8-.03-1.6,0-2.4,.03-1.2-.61-2-1.6-2.47-1.09-.52-2.18-.38-3.1,.49-.46,.44-.93,.88-1.37,1.34-7.65,8.04-15.29,16.08-22.94,24.12-3.58,3.76-7.18,7.49-10.77,11.25-7.82,8.2-15.64,16.42-23.46,24.62-3.64,3.81-7.3,7.6-10.93,11.42-7.82,8.2-15.62,16.43-23.45,24.62-4.52,4.73-9.2,9.33-13.61,14.16-2.28,2.5-6.82,2.51-9.15-.01-6.5-7.03-13.19-13.9-19.81-20.82-3.92-4.1-7.86-8.17-11.78-12.26-7.13-7.43-14.25-14.87-21.37-22.31-4.69-4.91-9.36-9.82-14.03-14.74-7.14-7.52-14.27-15.06-21.42-22.58-3.69-3.88-7.4-7.73-11.11-11.59-2.16-2.25-4.33-4.47-6.48-6.73-.96-1.01-2.03-1.6-3.41-1.06-1.48,.58-1.92,1.78-1.81,3.29,.05,.72,0,1.44,0,2.16,0,69.51,0,139.03-.01,208.54,0,1.42-.12,2.86-.34,4.27-.59,3.79-3.6,6.45-7.45,6.47-10.4,.05-20.79,.04-31.19,0-3.87-.01-6.91-2.53-7.63-6.31-.24-1.24-.24-2.54-.24-3.82-.01-43.47,0-86.93,0-130.4Z"/><path class="cls-1" d="M819.03,171.51c0,34.2,0,68.4,0,102.6,0,.88,.05,1.77-.12,2.62-.58,2.91-2.91,4.74-6.03,4.76-6.32,.03-12.64-.11-18.95,.05-3.67,.09-6.44-2.05-6.72-6.45-.04-.56,0-1.12,0-1.68,0-68.16,0-136.31,0-204.47,0-.56-.03-1.12,0-1.68,.24-4.01,2.6-6.32,6.61-6.34,6.32-.04,12.64-.04,18.95,0,3.9,.03,6.21,2.38,6.26,6.32,.05,3.52,.01,7.03,.01,10.55,0,31.24,0,62.48,0,93.73Z"/><path class="cls-1" d="M422.16,118.62c0,5.99,.01,11.98,0,17.97-.1,37.05-.21,74.11-.32,111.16-.03,8.86-.1,17.73-.16,26.59-.03,4.16-2.2,6.38-6.33,6.4-6.16,.02-12.32-.14-18.47,.06-4.17,.13-6.87-2.11-7.02-6.87-.06-1.82,.28-3.65,.28-5.48,.02-33.55,0-67.1,.02-100.65,.02-23.48,.09-46.96,.18-70.45,0-1.25,.15-2.59,.62-3.72,.89-2.15,2.64-3.43,5.03-3.45,6.8-.05,13.59-.09,20.39,.02,3.4,.06,5.73,2.73,5.77,6.38,.06,5.75,.02,11.5,.02,17.25,0,1.6,0,3.2,0,4.79Z"/><path class="cls-1" d="M559.88,269.51c2.23-4.46,9.69-10.74,15.56-12.3,.97,1.03,1.98,2.1,3,3.18,1.8-2.01,1.79-1.99,4.17-.92,5.35,2.4,10.84,2.56,16.32,.62,4.49-1.59,9.02-2.47,13.81-2.47,47,.05,94.01,.03,141.01,.03,.64,0,1.28-.02,1.92,0,2.71,.12,4.82,1.9,4.9,4.6,.16,4.95,.13,9.9,.03,14.85-.05,2.29-1.99,4.06-4.38,4.35-.71,.09-1.44,.04-2.16,.04-44.21,0-88.41,.01-132.62-.04-2.04,0-4.08-.6-6.12-.9-5.26-.79-10.33,.03-15.27,1.87-5.09,1.9-10.26,2.2-15.47,.5-1.28-.42-2.49-1.07-3.7-1.67-.42-.21-.99-.52-1.08-.88-.5-1.92-2.13-2.12-3.61-2.66-1.18-.43-2.49-.84-3.39-1.65-.95-.86-1.91-2.12-2.07-3.31-.25-1.83-1.19-2.5-2.74-2.75-1.26-.21-2.52-.39-3.79-.46-1.35-.08-2.71-.02-4.32-.02Z"/><path class="cls-1" d="M406.06,61.07c16.24,0,32.47,0,48.71,0,.8,0,1.62-.05,2.38,.14,1.41,.36,2.55,1.85,2.58,3.4,.06,3.28,.07,6.55,0,9.83-.04,2.15-1.44,3.55-3.58,3.75-.55,.05-1.12,.02-1.68,.02-32.23,0-64.46,0-96.69,0-.48,0-.96,.02-1.44,0-2.49-.14-4.01-1.61-4.07-4.08-.06-2.96-.07-5.91,0-8.87,.06-2.83,1.5-4.18,4.37-4.18,16.48,0,32.95,0,49.43,0Z"/><path class="cls-1" d="M559.81,240.84c1.27-1.49,2.46-3.06,3.84-4.44,2.73-2.73,5.88-4.9,9.41-6.5,2.18-.99,2.3-.95,3.83,.81,.36,.42,.73,.84,1.12,1.23,.1,.1,.29,.12,.59,.23,.44-.56,.91-1.15,1.51-1.91,.62,.27,1.26,.52,1.88,.82,5.63,2.72,11.42,2.89,17.21,.78,3.72-1.36,7.5-2.33,11.41-2.44,4.16-.11,8.16,.65,10.59,4.7,1.02,1.69,1.47,3.54,1.52,5.46,.08,3.35,.07,6.71,0,10.07-.05,3.05-1.59,4.21-4.51,3.44-6.08-1.62-12.01-1.07-17.85,1.1-6.36,2.36-12.65,2.45-18.81-.63-.97-.49-2.01-.91-2.31-2.23-.1-.46-.86-.87-1.4-1.1-1.02-.45-2.13-.68-3.15-1.13-2.12-.94-3.91-2.22-4.11-4.81-.09-1.21-.76-1.95-1.87-2.2-1.39-.3-2.82-.53-4.24-.63-1.42-.11-2.86-.02-4.29-.02-.13-.2-.25-.4-.38-.6Z"/><path class="cls-1" d="M559.44,72.67c1.69-2.94,3.61-4.97,5.83-6.62,2.42-1.8,4.99-3.43,7.63-4.88,1.99-1.09,2.08-.91,3.58,.79,.5,.57,1.04,1.1,1.68,1.79,.66-.85,1.13-1.44,1.67-2.13,.62,.26,1.2,.48,1.76,.75,5.68,2.77,11.5,2.97,17.38,.79,4.4-1.63,8.89-2.34,13.6-2.29,5.3,.05,10,4.46,9.73,9.96-.16,3.35-.02,6.71-.03,10.06-.01,3.22-1.37,4.21-4.57,3.53-1.94-.42-3.92-.77-5.9-.9-4.3-.27-8.37,.79-12.39,2.24-6.03,2.17-12.04,2.16-17.89-.74-1.08-.54-2.13-1.09-2.53-2.38-.39-1.22-1.6-1.24-2.55-1.49-1.81-.48-3.57-1.04-4.72-2.61-.64-.87-1.33-1.87-1.5-2.89-.24-1.46-1.01-2.15-2.28-2.36-1.72-.29-3.47-.45-5.21-.6-.94-.08-1.9-.01-3.29-.01Z"/><path class="cls-1" d="M559.32,128.97c4.16-5.95,9.26-9.94,15.83-12.46,.74,.86,1.44,1.7,2.17,2.53,.57,.65,1.38,.88,1.75,.03,.65-1.51,1.47-1.06,2.47-.55,3.19,1.63,6.6,2.53,10.16,2.26,2.51-.19,5.07-.69,7.46-1.47,4.67-1.52,9.35-2.58,14.32-2.18,4.65,.38,8.78,4.04,8.93,9.26,.11,3.75,.08,7.51,0,11.27-.05,2.63-1.54,3.74-4.15,3.02-6.42-1.77-12.63-1.05-18.77,1.28-5.45,2.06-10.94,2.07-16.38-.02-1.67-.64-3.44-1.22-4.14-3.27-.17-.49-1.12-.78-1.76-1.04-1.68-.7-3.66-.83-4.89-2.34-.79-.96-1.77-2.05-1.91-3.18-.23-1.87-1.32-2.53-2.8-2.72-2.12-.28-4.27-.3-6.41-.42-.47-.03-.95,0-1.89,0Z"/><path class="cls-1" d="M559.33,100.74c4.31-5.93,9.3-10.03,15.8-12.29,.71,.81,1.31,1.54,1.96,2.24,1.02,1.1,1.26,1.08,2.12-.12,.17-.24,.32-.49,.55-.84,.6,.23,1.12,.37,1.6,.62,5.82,2.96,11.8,3.11,17.85,.88,4.09-1.51,8.26-2.44,12.62-2.33,2.67,.07,5.22,.62,7.3,2.5,2.14,1.94,3.21,4.37,3.27,7.2,.08,3.59,.08,7.19,0,10.78-.05,2.61-1.6,3.93-4.1,3.22-6.69-1.9-13.05-.85-19.44,1.45-5.61,2.02-11.3,1.86-16.79-.65-1.28-.59-2.59-1.11-3.1-2.74-.17-.55-1.19-.93-1.89-1.21-1.61-.65-3.39-.85-4.74-2.16-1.07-1.03-2.02-2.07-2.06-3.62-.03-1.29-.82-1.93-1.9-2.12-2.03-.35-4.09-.57-6.15-.79-.78-.08-1.57-.01-2.92-.01Z"/><path class="cls-1" d="M559.72,212.94c3.95-5.53,8.97-9.72,15.53-12.03,1.06,1.11,2.02,2.12,3.03,3.19,.41-.31,.78-.45,.87-.69,.49-1.24,1.25-1.21,2.29-.69,2.22,1.13,4.55,1.82,7.03,2.22,3.75,.6,7.32,.06,10.8-1.23,4.62-1.71,9.33-2.58,14.29-2.26,5.57,.37,9.24,5.39,8.94,9.69-.22,3.08,.16,6.2,.25,9.3,.02,.56,.03,1.13-.05,1.67-.37,2.4-1.57,3.28-4.01,2.94-.79-.11-1.56-.36-2.34-.53-5.57-1.2-10.96-.38-16.2,1.61-5.36,2.03-10.74,2.29-16.16,.38-1.99-.7-4.14-1.29-5-3.67-.14-.4-.86-.65-1.37-.85-.89-.34-1.84-.54-2.72-.89-2.28-.89-4.07-2.28-4.37-4.89-.18-1.58-1.2-2.26-2.52-2.44-2.67-.37-5.37-.56-8.29-.85Z"/><path class="cls-1" d="M575.28,172.83c1.03,1.13,1.98,2.16,2.85,3.12,.41-.15,.61-.16,.69-.26,1.19-1.68,1.13-1.51,3.15-.79,2.38,.85,4.85,1.56,7.34,1.99,3.46,.6,6.84-.12,10.09-1.35,4.15-1.57,8.41-2.36,12.87-2.3,6.59,.08,10.54,5.01,10.2,10.24-.22,3.42-.02,6.87-.05,10.3-.03,2.69-1.44,3.88-4.02,3.15-6.51-1.85-12.76-.97-18.99,1.32-6.22,2.28-12.37,2.03-18.29-1.13-.62-.33-1.47-.76-1.62-1.3-.44-1.54-1.63-1.83-2.85-2.21-.69-.22-1.37-.45-2.04-.7-2.24-.86-3.87-2.43-4.23-4.79-.26-1.74-1.23-2.31-2.67-2.49-1.66-.22-3.33-.36-4.99-.48-.92-.07-1.86-.01-2.87-.01,1.99-4.65,10.33-11,15.44-12.29Z"/><path class="cls-1" d="M578.38,148.13c.61-.91,.99-1.48,1.51-2.24,.74,.33,1.45,.62,2.14,.94,5.48,2.58,11.12,2.81,16.75,.78,4.57-1.65,9.18-2.42,14.05-2.37,5.54,.06,9.81,4.7,9.64,9.77-.12,3.43-.17,6.87,.03,10.29,.14,2.43-1.44,4.31-4.24,3.52-6.49-1.83-12.73-.89-18.99,1.34-6.1,2.17-12.23,1.97-18.1-1.06-.62-.32-1.54-.74-1.66-1.26-.4-1.81-1.79-2.09-3.18-2.45-3.25-.85-5.66-2.46-6.14-6.12-.07-.53-.84-1.25-1.41-1.39-1.6-.41-3.27-.64-4.92-.8-1.26-.12-2.53-.02-4.15-.02,.38-.74,.54-1.23,.84-1.61,3.49-4.5,7.82-7.91,13.05-10.2,1.1-.48,1.91-.52,2.66,.59,.52,.76,1.25,1.37,2.12,2.29Z"/></g><g><path class="cls-1" d="M1091.54,3.47c10.64,0,19.27,8.64,19.26,19.28,0,10.64-8.65,19.28-19.28,19.26-10.65-.02-19.27-8.65-19.25-19.28,.02-10.64,8.64-19.26,19.27-19.25Zm0,34.62c8.48,0,15.35-6.87,15.36-15.35,0-8.48-6.87-15.36-15.35-15.36-8.48,0-15.35,6.87-15.36,15.35,0,8.48,6.87,15.36,15.35,15.36Z"/><path class="cls-1" d="M1095.88,22.96c1.42,.38,2.3,1.39,2.97,2.59,.58,1.04,1.09,2.11,1.63,3.17,.58,1.16,1.15,2.32,1.73,3.48,.03,.05,.05,.11,.08,.18h-.19c-1.72,0-3.43,0-5.15,0-.14,0-.21-.04-.27-.17-.83-1.71-1.66-3.41-2.52-5.11-.24-.47-.55-.91-.87-1.33-.48-.61-1.14-.92-1.9-.98-.68-.05-1.36-.03-2.03-.04-.01,0-.03,0-.06,.02v7.6h-5.19V12.22s.09,0,.13,0c2.74,0,5.48,0,8.21,0,1.32,0,2.62,.15,3.88,.57,.83,.28,1.58,.7,2.18,1.34,.64,.69,.97,1.53,1.11,2.45,.15,1.03,.14,2.05-.16,3.05-.42,1.43-1.38,2.37-2.71,2.97-.28,.13-.57,.23-.88,.35Zm-6.58-1.79s.06,0,.09,0c.78,0,1.57,.02,2.35,0,.39-.01,.78-.07,1.16-.16,.77-.19,1.31-.66,1.52-1.45,.17-.65,.17-1.3,0-1.95-.19-.73-.64-1.23-1.38-1.41-.41-.1-.84-.17-1.27-.19-.78-.03-1.56-.01-2.35-.01-.04,0-.07,0-.12,0v5.17Z"/></g></svg>