<?xml version="1.0" encoding="UTF-8"?><svg id="Layer_1" xmlns="http://www.w3.org/2000/svg" viewBox="0 0 1117.19 412.8"><defs><style>.cls-1{fill:#fff;}.cls-2{fill:#13294d;}</style></defs><g><path class="cls-2" d="M7.2,412.8c-.53-.31-1.04-.68-1.61-.92-3.3-1.41-4.99-3.98-5-7.47-.05-21.81-.03-43.62-.02-65.43,0-5.08,4.17-8.43,8.19-8.1,1.35,.11,2.72,.02,4.08,.02,342.42,0,684.85,0,1027.27,0,1.11,0,2.25-.02,3.33,.2,2.8,.57,4.49,2.48,5.6,4.99v71.44c-1.29,1.85-2.5,3.77-4.86,4.48-.49,.15-.92,.52-1.38,.79H7.2Zm67.38-22.07v-26.9l.43-.08c3.26,9.02,6.52,18.04,9.74,26.96h5.79c3.29-9.1,6.55-18.12,9.8-27.13l.54,.11v26.99h6.43v-37.97h-9.47c-3.24,9.39-6.51,18.83-9.77,28.27h-.52c-3.33-9.41-6.67-18.83-10-28.23h-9.71v37.99h6.73Zm495.58-38.01c-3.27,9.48-6.53,18.94-10.01,29.01-1.86-5.25-3.52-9.96-5.18-14.67-1.7-4.8-3.41-9.59-5.08-14.3h-9.45c-.46,3.29-.32,36.2,.15,37.94h6.16v-13.7c0-2.24-.03-4.47,0-6.71,.04-2.21-.2-4.45,.53-6.68,3.27,9.05,6.53,18.1,9.78,27.11h5.79c3.25-9.02,6.49-17.98,9.72-26.94,.46,9.01,.35,17.96,.45,26.86h6.71v-37.91h-9.58Zm-299.05,26.34l-.47,.07c-.3-.46-.61-.92-.9-1.39-4.88-7.85-9.75-15.72-14.67-23.55-.39-.62-1.05-1.46-1.63-1.5-2.19-.17-4.4-.05-6.55-.05-.5,4.32-.31,36.4,.17,38.01h6.35v-27.16c.62,.84,.91,1.18,1.15,1.56,2.02,3.25,4.02,6.52,6.03,9.77,3.02,4.88,6.04,9.76,9.11,14.62,.35,.55,.96,1.27,1.5,1.31,2.12,.15,4.26,.06,6.5,.06v-37.91c-2.67-.53-4.73-.46-6.58,.24v25.92Zm504.4,11.62v-15.36c3.53,0,6.78,.09,10.03-.02,3.27-.11,5.94,1.29,6.57,5.78,.23,1.65,.08,3.35,.21,5.02,.13,1.63,.08,3.34,1.25,4.62h6.95c-.49-1.85-1.1-3.58-1.38-5.36-.31-1.96-.37-3.96-.44-5.94-.11-2.85-1.2-5.08-3.76-6.49-.23-.13-.41-.37-.67-.6,.4-.25,.67-.42,.93-.6,5.62-3.66,5.39-12.85,1.14-16.34-2.49-2.04-5.37-2.75-8.46-2.78-5.75-.06-11.51-.02-17.26-.01-.7,0-1.4,.11-2.15,.17v37.94h7.03Zm-334.95-26.71c.68,.87,1.05,1.25,1.32,1.7,1.77,2.84,3.52,5.7,5.28,8.55,3.15,5.08,6.28,10.18,9.47,15.23,.35,.55,.97,1.26,1.5,1.3,2.12,.15,4.25,.06,6.33,.06,.47-3.77,.31-36.3-.17-38.09h-6.15v13.25c0,2.24,.04,4.47-.01,6.71-.05,2.16,.23,4.34-.27,6.95-2.85-4.58-5.46-8.76-8.06-12.95-2.6-4.2-5.17-8.43-7.82-12.6-.39-.61-1.11-1.36-1.73-1.41-2.11-.17-4.25-.07-6.41-.07v38.05h6.71v-26.68Zm190.5,11.75c-.08,3.43-.89,6.1-3.35,8-4.51,3.49-12.93,3.17-16.25-3.52-2.52-5.07-2.64-10.29-.7-15.55,2.21-6,7.28-8.25,13.51-6.62,2.91,.76,4.81,2.72,5.78,5.57,.15,.43,.38,.84,.53,1.18h6.57c-.44-4.27-2.26-7.59-5.62-10.02-2.74-1.98-5.89-2.88-9.2-3.1-7.49-.49-13.91,2.68-17.56,9.68-2.23,4.28-2.57,8.88-2.07,13.52,.69,6.39,3.58,11.53,9.38,14.72,5.37,2.95,14.43,3.29,19.27-2.28,.12-.14,.39-.14,.7-.25l1.04,3.62h4.12c.44-3.16,.33-18.41-.19-20.33-5.25,.02-10.56-.19-15.91,.13v5.25h9.95Zm-203.75-4.16c-.08-.95-.08-2.32-.33-3.64-.31-1.63-.68-3.29-1.29-4.82-2.66-6.63-7.51-10.6-14.7-11.34-6.88-.7-12.62,1.55-16.65,7.32-4.01,5.74-4.57,12.15-2.95,18.76,1.05,4.29,3.25,7.94,6.95,10.57,4.07,2.89,8.59,3.67,13.43,3.05,3.58-.46,6.7-1.92,9.35-4.41,4.37-4.1,5.92-9.31,6.18-15.48Zm-397.04,6.21c.06,5.13,1.81,9.13,6.08,11.46,6.04,3.3,12.41,3.33,18.67,.54,4.7-2.09,6.89-6.15,6.39-11.47-.37-3.95-3.27-7.48-7.81-8.68-2.47-.65-4.95-1.26-7.4-1.96-1.68-.48-3.36-1-4.97-1.66-1.73-.7-2.54-2.19-2.5-3.99,.03-1.85,1.09-3.24,2.83-3.76,1.5-.45,3.12-.65,4.69-.65,4.27,0,6.18,1.66,7.14,5.87,.03,.13,.18,.23,.29,.35h6.74c0-3.81-1.4-6.77-4.27-9.02-2.6-2.04-5.66-2.92-8.9-3.14-3.99-.26-7.83,.34-11.18,2.71-3.46,2.44-4.81,5.9-4.32,10.01,.47,3.96,2.88,6.47,6.56,7.76,1.58,.56,3.21,.94,4.82,1.39,2.68,.76,5.38,1.48,8.05,2.27,2.07,.61,3.28,2.08,3.3,4.2,.02,2.12-.92,3.92-2.99,4.76-1.31,.53-2.73,.94-4.14,1.08-5.3,.56-8.61-1.81-9.94-6.99-.19-.74-.56-1.1-1.31-1.1-1.83,0-3.66,0-5.83,0Zm972.65-13.79c.08-3.32-.97-5.81-2.94-7.96-2.71-2.96-6.26-4.03-10.09-4.32-4.33-.33-8.44,.42-11.97,3.18-5.31,4.15-5.26,13.87,1.94,16.83,1.25,.51,2.54,.93,3.84,1.3,3.14,.89,6.32,1.67,9.45,2.6,1.46,.43,2.84,1.12,3.48,2.69,1.03,2.52,.03,5.13-2.52,6.44-2.95,1.52-6.01,1.43-9.08,.45-3-.97-4.87-2.93-5.11-6.2-.03-.37-.15-.73-.22-1.06h-6.92c.06,5.08,1.9,9.09,6.29,11.43,6.09,3.23,12.46,3.17,18.68,.36,4.47-2.02,6.61-6.19,6.18-11.14-.38-4.33-3.11-7.52-7.81-8.91-3.06-.91-6.17-1.62-9.25-2.49-1.14-.32-2.27-.75-3.33-1.28-1.57-.78-2.27-2.08-2.2-3.9,.08-1.85,1.06-3.08,2.59-3.69,2.92-1.16,5.93-1.19,8.81,.24,2.14,1.05,2.93,3.02,3.18,5.44h6.97Zm-196.03-11.33v38.02h27.61v-5.97c-3.54,0-6.88,.01-10.22,0-3.4-.02-6.8,.07-10.36-.06,.03-3.73-.11-7.11,.08-10.58,3.36,0,6.39,0,9.42,0,3.08,0,6.16-.03,9.36-.05,0-1.22,.01-2.09,0-2.97-.02-.92-.07-1.83-.11-2.98h-18.75c.03-3.25-.11-6.24,.1-9.45h20.42v-5.95c-9.22-.14-18.36-.13-27.54,0Zm-437.76,11.25c.32-4.51-1.75-7.51-5.11-9.8-2.3-1.58-4.96-2.22-7.68-2.4-4.41-.3-8.59,.47-12.17,3.32-4.64,3.69-4.91,11.65-.22,15.35,1.8,1.42,3.92,2.09,6.09,2.69,3.38,.93,6.76,1.85,10.13,2.83,1.56,.45,2.67,1.45,3.04,3.08,.56,2.43-.47,4.68-2.72,5.81-3.03,1.52-6.17,1.44-9.3,.37-2.61-.89-4.3-2.66-4.81-5.45-.11-.61-.31-1.2-.49-1.84-2.27-.08-4.46-.16-6.73,.04,.16,5.71,2.37,9.91,7.45,12.09,5.68,2.44,11.53,2.39,17.2-.08,5.16-2.25,6.93-6.75,6.61-10.92-.41-5.24-3.7-8.32-8.4-9.45-1.78-.43-3.55-.9-5.32-1.4-2.07-.59-4.15-1.14-6.17-1.88-1.78-.66-2.87-2-2.91-3.99-.04-1.88,1.01-3.29,3.08-4.1,2.32-.91,4.71-.78,7.05-.17,2.35,.61,3.83,2.19,4.4,4.58,.1,.44,.23,.87,.35,1.35h6.62Zm499.89-.04c.23-3.64-1.17-6.42-3.73-8.71-2.57-2.29-5.71-3.16-9-3.43-4.32-.35-8.43,.38-12.01,3.07-4.93,3.71-5.19,11.79-.62,15.48,1.85,1.5,4.04,2.19,6.29,2.79,3.23,.86,6.49,1.64,9.68,2.65,2.53,.8,3.54,2.27,3.55,4.51,.01,2.29-1.19,4.01-3.51,4.89-2.96,1.13-5.94,1.04-8.89-.07-2.61-.98-4.17-2.86-4.65-5.61-.09-.52-.21-1.03-.31-1.5h-6.87c.09,.71,.18,1.25,.23,1.8,.5,5.08,3.11,8.64,7.85,10.5,1.69,.66,3.52,1.12,5.32,1.29,4.6,.43,9.13,.04,13.11-2.63,3.93-2.64,5.3-6.49,4.6-11.03-.68-4.42-3.55-6.98-7.71-8.21-1.76-.52-3.55-.93-5.32-1.42-2.15-.6-4.33-1.12-6.43-1.87-2.24-.81-3.15-2.24-3.1-4.32,.04-1.89,1.26-3.66,3.46-4.02,2.15-.35,4.46-.36,6.61,.02,2.34,.41,3.92,2.03,4.35,4.54,.08,.45,.32,.87,.49,1.3h6.62Zm-367.98,.02c.07-4.1-1.56-7.4-4.67-9.42-4.71-3.07-9.84-3.47-15.17-2.09-5.88,1.52-8.83,5.48-8.66,11.49,.08,2.91,1.25,5.3,3.74,6.84,1.33,.83,2.83,1.47,4.34,1.93,3.74,1.14,7.53,2.08,11.27,3.19,1.93,.57,3.13,1.91,3.27,3.98,.15,2.09-.69,3.72-2.52,4.8-1.7,1.01-3.61,1.41-5.52,1.3-4.44-.27-8.39-1.44-9.19-7.46-.02-.14-.14-.27-.27-.53h-6.39c-.06,.49-.16,.87-.15,1.25,.19,4.82,2.47,8.49,6.74,10.51,6.09,2.88,12.41,2.9,18.47-.17,4.34-2.2,6.26-5.79,5.76-11.35-.35-3.93-3.33-7.24-7.72-8.48-2.45-.7-4.94-1.27-7.39-1.97-1.68-.48-3.37-1-4.97-1.68-1.79-.76-2.71-2.26-2.54-4.21,.16-1.86,1.36-2.99,3.04-3.65,2.17-.85,4.42-.75,6.61-.3,2.54,.53,4.3,2.01,4.79,4.71,.08,.45,.31,.88,.47,1.31h6.65Zm168.19-11.11v14.79h-16.9v-14.8h-6.86v37.9h6.94v-16.94h16.94v17.04c2.43,.05,4.54,.29,6.71-.16v-37.83h-6.84Zm207.29-.06c-.1,.49-.19,.73-.19,.96-.01,8.38-.22,16.77,.04,25.14,.19,6.02,3.72,10.2,9.07,11.93,2.7,.87,5.48,1.07,8.28,.88,9.72-.66,14-6.72,13.93-14.39-.06-7.26-.01-14.53-.01-21.79,0-.86,0-1.71,0-2.66h-7.03c0,1.07,0,1.93,0,2.8,0,7.1,.02,14.21,0,21.31-.01,3.38-.94,6.41-4.29,7.9-2.39,1.06-5.01,.92-7.53,.34-3.07-.71-4.76-2.82-5.19-5.86-.27-1.88-.4-3.8-.41-5.7-.05-6.07-.01-12.13-.02-18.2,0-.85-.07-1.69-.11-2.66h-6.53Zm-557.68,12.14c-.29-4.07-1.9-7.16-4.84-9.5-8.98-7.16-22.81-3.85-27.63,6.55-2.13,4.6-2.45,9.44-1.62,14.28,.92,5.35,3.43,9.89,8.26,12.88,3.47,2.15,7.26,2.76,11.23,2.57,7.19-.34,13.4-5.95,14.44-13.05,.12-.82,.02-1.68,.02-2.71h-6.26c-.71,2.01-1.18,3.7-1.9,5.28-1.1,2.39-3.05,3.83-5.61,4.44-5.16,1.23-10.07-1.36-12.13-6.52-1.78-4.45-1.95-8.99-.46-13.57,1.62-4.99,5.12-8.43,11.55-7.89,3.11,.26,5.45,1.66,6.91,4.44,.48,.91,.85,1.87,1.28,2.81h6.79Zm-170.6,25.91c-.36-1.05-.58-1.8-.87-2.53-4.05-10.56-8.05-21.13-12.2-31.65-1.87-4.72-.39-3.9-5.86-3.99-.32,0-.64,0-.96,0q-2.15,.04-2.93,2.04c-3.83,9.96-7.67,19.92-11.49,29.88-.76,1.99-1.48,3.99-2.29,6.2h7.25c1.2-3.3,2.39-6.58,3.57-9.83h14.75c1.22,3.34,2.42,6.61,3.61,9.88h7.42Zm582.6-21.6c-.66-1.11-1.07-1.78-1.47-2.46-2.48-4.18-4.95-8.37-7.46-12.53-.35-.58-.9-1.4-1.41-1.45-2.42-.23-4.86-.22-7.54-.01,.43,.76,.64,1.18,.89,1.58,3.97,6.44,7.93,12.9,11.94,19.32,.87,1.4,1.35,2.79,1.3,4.48-.1,3.59-.04,7.18-.02,10.77,0,.61,.12,1.22,.19,1.83h6.88c.04-.93,.1-1.71,.11-2.49,.01-3.27,.08-6.54-.02-9.81-.06-1.84,.42-3.38,1.4-4.93,3.95-6.27,7.81-12.6,11.69-18.92,.31-.5,.52-1.06,.94-1.94-2.32,0-4.3,.05-6.27-.02-1.11-.04-1.72,.4-2.24,1.37-1.29,2.38-2.71,4.69-4.08,7.03-1.52,2.6-3.04,5.19-4.81,8.2Zm238.99-16.42h-30.66v5.99h11.86v31.92h7.08v-32h11.92c0-1.74,.01-3.17,0-4.6,0-.39-.11-.78-.18-1.31Zm-257.74,0h-30.62v6h11.83c0,5.48,0,10.73,0,15.99,0,5.31-.02,10.63,.02,16.02,2.47,.04,4.58,.3,6.91-.21v-31.76c4.08-.19,7.96,.07,11.86-.16v-5.88Zm-528.15,37.82c3.12,.5,24.45,.37,26.12-.14v-5.63c-6.37-.27-12.64,.1-19.06-.21,0-5.55,0-10.81,0-16.06,0-5.23,0-10.46,0-15.77h-7.06v37.81Zm732.21-37.81v37.87c3.78,.46,24.25,.31,25.91-.17v-5.75h-6.31c-2.16,0-4.32,.06-6.48-.02-2.03-.07-4.11,.35-6.3-.38v-31.55h-6.83Zm-763.57,38.09c8.83-.03,17.41,.06,25.98-.06v-6.08h-6.32c-2.16,0-4.32,.06-6.48-.02-2.03-.07-4.11,.36-6.29-.39v-31.53h-6.89v38.08Zm231.23-.1v-37.96h-6.87c-.49,4-.3,36.27,.21,37.96h6.66Zm211.62-37.99h-6.89v38.08h6.89v-38.08Zm-262.9,38.08c.51-4.56,.3-36.35-.27-38.25-1.52,0-3.1-.02-4.69,0-.54,0-1.09,.13-1.71,.21v37.94c.77,.04,1.39,.08,2.01,.09,1.51,.01,3.01,0,4.65,0Zm-101.18-38.1v37.9h6.72v-37.9h-6.72Zm284.58,30.7h-7.55v7.26h7.55v-7.26Zm501.81,0h-7.54v7.23h7.54v-7.23Z"/><path class="cls-2" d="M1048.63,36.28c.33,4.19-3.68,7.43-7.14,7.51-.72,.02-1.44,.01-2.16,.01-17.68,0-35.35,.02-53.03,0-36.14-.06-72.29-.13-108.43-.21-35.58-.08-71.17-.18-106.75-.26-36.06-.08-72.13-.14-108.19-.22-35.66-.08-71.33-.17-106.99-.27-4.31-.01-8.63-.2-12.94-.19-3.2,0-6.05,.99-7.65,4-.65,1.23-.85,2.7-1.21,4.06-.08,.3-.01,.64-.01,.96-.05,45.78-.08,91.56-.17,137.34-.05,27.88-.2,55.75-.31,83.63-.02,5.73-3.16,8.95-8.89,8.95-10.15,0-20.31-.1-30.46-.21-3.9-.05-7.1-3.33-7.2-7.22-.04-1.76,0-3.52,0-5.27,0-27.09-.02-54.17,0-81.26,.03-37.15,.08-74.3,.17-111.46,.02-8.22,.23-16.44,.3-24.66,.03-3.33-1.1-6.19-4.18-7.79-1.29-.66-2.87-1.03-4.33-1.04-10.32-.09-20.63-.02-30.95-.05-28.47-.08-56.93-.17-85.4-.25-1.94,0-3.87-.09-5.54-1.16-2.5-1.62-3.96-3.87-3.95-6.96,.02-8.47,.04-16.94,0-25.41-.02-5,3.86-8.52,8.65-8.46,16.07,.19,32.15,.06,48.23,.07,35.59,.03,71.18,.04,106.77,.11,36.14,.07,72.28,.22,108.42,.3,35.19,.08,70.37,.1,105.56,.17,36.46,.08,72.92,.22,109.38,.31,35.27,.08,70.53,.09,105.8,.18,31.26,.07,62.52,.21,93.78,.29,2.95,0,5.61,.64,7.45,3.06,.83,1.09,1.22,2.5,1.81,3.76,0,6.07-.61,25.19-.41,27.65Z"/><path class="cls-2" d="M1049.04,85.34c-.17,.25-.4,.49-.49,.76-.69,2.29-2.41,3.28-4.59,3.63-.94,.15-1.91,.09-2.87,.09-52.46,0-104.92,.02-157.37-.03-3.74,0-5.61,.28-5.57,5.53,.14,16.86,.05,33.71,.05,50.57,0,.64-.04,1.28,.02,1.92,.19,1.85,1.43,3.01,3.3,3.11,.72,.04,1.44,.01,2.16,.01,32.71,0,65.41,0,98.12,0,.8,0,1.6-.03,2.4,.02,3.29,.18,5.75,2.56,5.8,5.84,.08,5.59,.07,11.19,0,16.78-.04,3.19-2.34,5.55-5.51,5.87-.87,.09-1.76,.05-2.64,.05-32.79,0-65.57,.03-98.36-.03-3.55,0-5.34,.36-5.32,5.26,.08,30.04,.04,60.08,.03,90.12,0,1.03,.02,2.11-.27,3.08-.73,2.37-2.89,3.93-5.43,3.95-6.72,.04-13.43,.04-20.15,0-2.93-.02-5.12-1.93-5.66-4.86-.16-.86-.16-1.75-.16-2.62,0-68.55,0-137.09,0-205.64,0-.64-.03-1.28,.04-1.92,.33-3.06,2.37-5.12,5.42-5.47,.79-.09,1.6-.07,2.39-.07,62.29,0,124.59,0,186.88,0,.08,0,.16,0,.24,0,3.58-.35,6.18,.96,7.53,4.41v19.66Z"/><path class="cls-2" d="M.96,141.33c0-43.23,0-86.45,0-129.68,0-.8-.03-1.6,.01-2.4C1.21,4.34,4.53,1.09,9.45,1.04c4.72-.04,9.44-.01,14.16-.01,9.04,0,18.08,.11,27.11-.04,5.85-.1,10.54,1.96,14.35,6.34,2.15,2.47,4.43,4.82,6.7,7.18,6.3,6.57,12.64,13.11,18.94,19.67,5.14,5.35,10.27,10.73,15.4,16.09,6.9,7.21,13.8,14.42,20.69,21.63,6.9,7.21,13.81,14.41,20.69,21.64,3.91,4.1,7.77,8.25,11.67,12.35,2.56,2.69,6.36,2.63,8.92-.04,4.86-5.08,9.74-10.13,14.6-15.2,7.07-7.38,14.14-14.76,21.2-22.14,5.13-5.36,10.27-10.73,15.4-16.09,6.95-7.27,13.91-14.53,20.86-21.8,5.13-5.37,10.26-10.73,15.39-16.1,2.81-2.95,5.58-5.93,8.4-8.86,2.98-3.09,6.71-4.58,10.96-4.6,14.32-.05,28.63-.04,42.95,0,4.84,.01,8.1,3.15,8.45,7.98,.06,.8,.03,1.6,.03,2.4,0,86.69,0,173.38-.02,260.08,0,1.66-.1,3.38-.53,4.96-.89,3.25-3.72,5.37-7.1,5.39-10.48,.05-20.95,.05-31.43,0-3.85-.02-6.81-2.65-7.44-6.48-.22-1.33-.33-2.69-.33-4.04-.02-69.75-.01-139.51-.01-209.26,0-.8-.03-1.6,0-2.4,.03-1.2-.61-2-1.6-2.47-1.09-.52-2.18-.38-3.1,.49-.46,.44-.93,.88-1.37,1.34-7.65,8.04-15.29,16.08-22.94,24.12-3.58,3.76-7.18,7.49-10.77,11.25-7.82,8.2-15.64,16.42-23.46,24.62-3.64,3.81-7.3,7.6-10.93,11.42-7.82,8.2-15.62,16.43-23.45,24.62-4.52,4.73-9.2,9.33-13.61,14.16-2.28,2.5-6.82,2.51-9.15-.01-6.5-7.03-13.19-13.9-19.81-20.82-3.92-4.1-7.86-8.17-11.78-12.26-7.13-7.43-14.25-14.87-21.37-22.31-4.69-4.91-9.36-9.82-14.03-14.74-7.14-7.52-14.27-15.06-21.42-22.58-3.69-3.88-7.4-7.73-11.11-11.59-2.16-2.25-4.33-4.47-6.48-6.73-.96-1.01-2.03-1.6-3.41-1.06-1.48,.58-1.92,1.78-1.81,3.29,.05,.72,0,1.44,0,2.16,0,69.51,0,139.03-.01,208.54,0,1.42-.12,2.86-.34,4.27-.59,3.79-3.6,6.45-7.45,6.47-10.4,.05-20.79,.04-31.19,0-3.87-.01-6.91-2.53-7.63-6.31-.24-1.24-.24-2.54-.24-3.82-.01-43.47,0-86.93,0-130.4Z"/><path class="cls-2" d="M819.98,171.89c0,34.2,0,68.4,0,102.6,0,.88,.05,1.77-.12,2.62-.58,2.91-2.91,4.74-6.03,4.76-6.32,.03-12.64-.11-18.95,.05-3.67,.09-6.44-2.05-6.72-6.45-.04-.56,0-1.12,0-1.68,0-68.16,0-136.31,0-204.47,0-.56-.03-1.12,0-1.68,.24-4.01,2.6-6.32,6.61-6.34,6.32-.04,12.64-.04,18.95,0,3.9,.03,6.21,2.38,6.26,6.32,.05,3.52,.01,7.03,.01,10.55,0,31.24,0,62.48,0,93.73Z"/><path class="cls-2" d="M423.11,119c0,5.99,.01,11.98,0,17.97-.1,37.05-.21,74.11-.32,111.16-.03,8.86-.1,17.73-.16,26.59-.03,4.16-2.2,6.38-6.33,6.4-6.16,.02-12.32-.14-18.47,.06-4.17,.13-6.87-2.11-7.02-6.87-.06-1.82,.28-3.65,.28-5.48,.02-33.55,0-67.1,.02-100.65,.02-23.48,.09-46.96,.18-70.45,0-1.25,.15-2.59,.62-3.72,.89-2.15,2.64-3.43,5.03-3.45,6.8-.05,13.59-.09,20.39,.02,3.4,.06,5.73,2.73,5.77,6.38,.06,5.75,.02,11.5,.02,17.25,0,1.6,0,3.2,0,4.79Z"/><path class="cls-2" d="M560.83,269.88c2.23-4.46,9.69-10.74,15.56-12.3,.97,1.03,1.98,2.1,3,3.18,1.8-2.01,1.79-1.99,4.17-.92,5.35,2.4,10.84,2.56,16.32,.62,4.49-1.59,9.02-2.47,13.81-2.47,47,.05,94.01,.03,141.01,.03,.64,0,1.28-.02,1.92,0,2.71,.12,4.82,1.9,4.9,4.6,.16,4.95,.13,9.9,.03,14.85-.05,2.29-1.99,4.06-4.38,4.35-.71,.09-1.44,.04-2.16,.04-44.21,0-88.41,.01-132.62-.04-2.04,0-4.08-.6-6.12-.9-5.26-.79-10.33,.03-15.27,1.87-5.09,1.9-10.26,2.2-15.47,.5-1.28-.42-2.49-1.07-3.7-1.67-.42-.21-.99-.52-1.08-.88-.5-1.92-2.13-2.12-3.61-2.66-1.18-.43-2.49-.84-3.39-1.65-.95-.86-1.91-2.12-2.07-3.31-.25-1.83-1.19-2.5-2.74-2.75-1.26-.21-2.52-.39-3.79-.46-1.35-.08-2.71-.02-4.32-.02Z"/><path class="cls-2" d="M407.01,61.44c16.24,0,32.47,0,48.71,0,.8,0,1.62-.05,2.38,.14,1.41,.36,2.55,1.85,2.58,3.4,.06,3.28,.07,6.55,0,9.83-.04,2.15-1.44,3.55-3.58,3.75-.55,.05-1.12,.02-1.68,.02-32.23,0-64.46,0-96.69,0-.48,0-.96,.02-1.44,0-2.49-.14-4.01-1.61-4.07-4.08-.06-2.96-.07-5.91,0-8.87,.06-2.83,1.5-4.18,4.37-4.18,16.48,0,32.95,0,49.43,0Z"/><path class="cls-2" d="M560.76,241.21c1.27-1.49,2.46-3.06,3.84-4.44,2.73-2.73,5.88-4.9,9.41-6.5,2.18-.99,2.3-.95,3.83,.81,.36,.42,.73,.84,1.12,1.23,.1,.1,.29,.12,.59,.23,.44-.56,.91-1.15,1.51-1.91,.62,.27,1.26,.52,1.88,.82,5.63,2.72,11.42,2.89,17.21,.78,3.72-1.36,7.5-2.33,11.41-2.44,4.16-.11,8.16,.65,10.59,4.7,1.02,1.69,1.47,3.54,1.52,5.46,.08,3.35,.07,6.71,0,10.07-.05,3.05-1.59,4.21-4.51,3.44-6.08-1.62-12.01-1.07-17.85,1.1-6.36,2.36-12.65,2.45-18.81-.63-.97-.49-2.01-.91-2.31-2.23-.1-.46-.86-.87-1.4-1.1-1.02-.45-2.13-.68-3.15-1.13-2.12-.94-3.91-2.22-4.11-4.81-.09-1.21-.76-1.95-1.87-2.2-1.39-.3-2.82-.53-4.24-.63-1.42-.11-2.86-.02-4.29-.02-.13-.2-.25-.4-.38-.6Z"/><path class="cls-2" d="M560.39,73.05c1.69-2.94,3.61-4.97,5.83-6.62,2.42-1.8,4.99-3.43,7.63-4.88,1.99-1.09,2.08-.91,3.58,.79,.5,.57,1.04,1.1,1.68,1.79,.66-.85,1.13-1.44,1.67-2.13,.62,.26,1.2,.48,1.76,.75,5.68,2.77,11.5,2.97,17.38,.79,4.4-1.63,8.89-2.34,13.6-2.29,5.3,.05,10,4.46,9.73,9.96-.16,3.35-.02,6.71-.03,10.06-.01,3.22-1.37,4.21-4.57,3.53-1.94-.42-3.92-.77-5.9-.9-4.3-.27-8.37,.79-12.39,2.24-6.03,2.17-12.04,2.16-17.89-.74-1.08-.54-2.13-1.09-2.53-2.38-.39-1.22-1.6-1.24-2.55-1.49-1.81-.48-3.57-1.04-4.72-2.61-.64-.87-1.33-1.87-1.5-2.89-.24-1.46-1.01-2.15-2.28-2.36-1.72-.29-3.47-.45-5.21-.6-.94-.08-1.9-.01-3.29-.01Z"/><path class="cls-2" d="M560.27,129.34c4.16-5.95,9.26-9.94,15.83-12.46,.74,.86,1.44,1.7,2.17,2.53,.57,.65,1.38,.88,1.75,.03,.65-1.51,1.47-1.06,2.47-.55,3.19,1.63,6.6,2.53,10.16,2.26,2.51-.19,5.07-.69,7.46-1.47,4.67-1.52,9.35-2.58,14.32-2.18,4.65,.38,8.78,4.04,8.93,9.26,.11,3.75,.08,7.51,0,11.27-.05,2.63-1.54,3.74-4.15,3.02-6.42-1.77-12.63-1.05-18.77,1.28-5.45,2.06-10.94,2.07-16.38-.02-1.67-.64-3.44-1.22-4.14-3.27-.17-.49-1.12-.78-1.76-1.04-1.68-.7-3.66-.83-4.89-2.34-.79-.96-1.77-2.05-1.91-3.18-.23-1.87-1.32-2.53-2.8-2.72-2.12-.28-4.27-.3-6.41-.42-.47-.03-.95,0-1.89,0Z"/><path class="cls-2" d="M560.28,101.12c4.31-5.93,9.3-10.03,15.8-12.29,.71,.81,1.31,1.54,1.96,2.24,1.02,1.1,1.26,1.08,2.12-.12,.17-.24,.32-.49,.55-.84,.6,.23,1.12,.37,1.6,.62,5.82,2.96,11.8,3.11,17.85,.88,4.09-1.51,8.26-2.44,12.62-2.33,2.67,.07,5.22,.62,7.3,2.5,2.14,1.94,3.21,4.37,3.27,7.2,.08,3.59,.08,7.19,0,10.78-.05,2.61-1.6,3.93-4.1,3.22-6.69-1.9-13.05-.85-19.44,1.45-5.61,2.02-11.3,1.86-16.79-.65-1.28-.59-2.59-1.11-3.1-2.74-.17-.55-1.19-.93-1.89-1.21-1.61-.65-3.39-.85-4.74-2.16-1.07-1.03-2.02-2.07-2.06-3.62-.03-1.29-.82-1.93-1.9-2.12-2.03-.35-4.09-.57-6.15-.79-.78-.08-1.57-.01-2.92-.01Z"/><path class="cls-2" d="M560.67,213.32c3.95-5.53,8.97-9.72,15.53-12.03,1.06,1.11,2.02,2.12,3.03,3.19,.41-.31,.78-.45,.87-.69,.49-1.24,1.25-1.21,2.29-.69,2.22,1.13,4.55,1.82,7.03,2.22,3.75,.6,7.32,.06,10.8-1.23,4.62-1.71,9.33-2.58,14.29-2.26,5.57,.37,9.24,5.39,8.94,9.69-.22,3.08,.16,6.2,.25,9.3,.02,.56,.03,1.13-.05,1.67-.37,2.4-1.57,3.28-4.01,2.94-.79-.11-1.56-.36-2.34-.53-5.57-1.2-10.96-.38-16.2,1.61-5.36,2.03-10.74,2.29-16.16,.38-1.99-.7-4.14-1.29-5-3.67-.14-.4-.86-.65-1.37-.85-.89-.34-1.84-.54-2.72-.89-2.28-.89-4.07-2.28-4.37-4.89-.18-1.58-1.2-2.26-2.52-2.44-2.67-.37-5.37-.56-8.29-.85Z"/><path class="cls-2" d="M576.23,173.21c1.03,1.13,1.98,2.16,2.85,3.12,.41-.15,.61-.16,.69-.26,1.19-1.68,1.13-1.51,3.15-.79,2.38,.85,4.85,1.56,7.34,1.99,3.46,.6,6.84-.12,10.09-1.35,4.15-1.57,8.41-2.36,12.87-2.3,6.59,.08,10.54,5.01,10.2,10.24-.22,3.42-.02,6.87-.05,10.3-.03,2.69-1.44,3.88-4.02,3.15-6.51-1.85-12.76-.97-18.99,1.32-6.22,2.28-12.37,2.03-18.29-1.13-.62-.33-1.47-.76-1.62-1.3-.44-1.54-1.63-1.83-2.85-2.21-.69-.22-1.37-.45-2.04-.7-2.24-.86-3.87-2.43-4.23-4.79-.26-1.74-1.23-2.31-2.67-2.49-1.66-.22-3.33-.36-4.99-.48-.92-.07-1.86-.01-2.87-.01,1.99-4.65,10.33-11,15.44-12.29Z"/><path class="cls-2" d="M579.32,148.5c.61-.91,.99-1.48,1.51-2.24,.74,.33,1.45,.62,2.14,.94,5.48,2.58,11.12,2.81,16.75,.78,4.57-1.65,9.18-2.42,14.05-2.37,5.54,.06,9.81,4.7,9.64,9.77-.12,3.43-.17,6.87,.03,10.29,.14,2.43-1.44,4.31-4.24,3.52-6.49-1.83-12.73-.89-18.99,1.34-6.1,2.17-12.23,1.97-18.1-1.06-.62-.32-1.54-.74-1.66-1.26-.4-1.81-1.79-2.09-3.18-2.45-3.25-.85-5.66-2.46-6.14-6.12-.07-.53-.84-1.25-1.41-1.39-1.6-.41-3.27-.64-4.92-.8-1.26-.12-2.53-.02-4.15-.02,.38-.74,.54-1.23,.84-1.61,3.49-4.5,7.82-7.91,13.05-10.2,1.1-.48,1.91-.52,2.66,.59,.52,.76,1.25,1.37,2.12,2.29Z"/><path class="cls-1" d="M74.57,390.73h-6.73v-37.99h9.71c3.33,9.4,6.66,18.81,10,28.23h.52c3.26-9.44,6.52-18.88,9.77-28.27h9.47v37.97h-6.43v-26.99l-.54-.11c-3.26,9.02-6.51,18.03-9.8,27.13h-5.79c-3.22-8.92-6.48-17.94-9.74-26.96l-.43,.08v26.9Z"/><path class="cls-1" d="M570.16,352.72h9.58v37.91h-6.71c-.1-8.89,0-17.84-.45-26.86-3.23,8.96-6.47,17.92-9.72,26.94h-5.79c-3.25-9.01-6.52-18.06-9.78-27.11-.73,2.23-.48,4.47-.53,6.68-.04,2.24,0,4.47,0,6.71v13.7h-6.16c-.47-1.74-.61-34.65-.15-37.94h9.45c1.68,4.71,3.38,9.51,5.08,14.3,1.67,4.71,3.33,9.42,5.18,14.67,3.47-10.07,6.74-19.53,10.01-29.01Z"/><path class="cls-1" d="M271.11,379.06v-25.92c1.86-.71,3.92-.77,6.58-.24v37.91c-2.23,0-4.37,.09-6.5-.06-.53-.04-1.15-.76-1.5-1.31-3.07-4.85-6.08-9.74-9.11-14.62-2.02-3.25-4.02-6.52-6.03-9.77-.24-.38-.53-.72-1.15-1.56v27.16h-6.35c-.48-1.61-.68-33.7-.17-38.01,2.15,0,4.36-.13,6.55,.05,.59,.05,1.24,.88,1.63,1.5,4.91,7.84,9.79,15.7,14.67,23.55,.29,.47,.6,.93,.9,1.39l.47-.07Z"/><path class="cls-1" d="M775.51,390.68h-7.03v-37.94c.75-.06,1.45-.17,2.15-.17,5.75-.01,11.51-.05,17.26,.01,3.08,.03,5.97,.74,8.46,2.78,4.25,3.5,4.48,12.69-1.14,16.34-.27,.17-.54,.34-.93,.6,.26,.24,.43,.47,.67,.6,2.56,1.42,3.65,3.65,3.76,6.49,.08,1.98,.14,3.98,.44,5.94,.28,1.78,.89,3.51,1.38,5.36h-6.95c-1.17-1.28-1.12-2.99-1.25-4.62-.13-1.67,.02-3.37-.21-5.02-.63-4.49-3.3-5.89-6.57-5.78-3.25,.11-6.51,.02-10.03,.02v15.36Zm.17-32.63v11.54c4.15,0,8.14,.19,12.1-.06,3.02-.2,4.43-2.11,4.52-5.17,.01-.4,.01-.8,0-1.2-.1-2.59-1.42-4.3-4-4.52-4.11-.35-8.25-.4-12.62-.59Z"/><path class="cls-1" d="M440.56,363.96v26.68h-6.71v-38.05c2.16,0,4.29-.11,6.41,.07,.62,.05,1.35,.8,1.73,1.41,2.65,4.17,5.21,8.4,7.82,12.6,2.59,4.19,5.2,8.37,8.06,12.95,.5-2.61,.22-4.79,.27-6.95,.05-2.23,.01-4.47,.01-6.71v-13.25h6.15c.48,1.8,.64,34.32,.17,38.09-2.08,0-4.21,.09-6.33-.06-.53-.04-1.15-.75-1.5-1.3-3.19-5.06-6.32-10.15-9.47-15.23-1.76-2.85-3.51-5.71-5.28-8.55-.28-.44-.64-.83-1.32-1.7Z"/><path class="cls-1" d="M631.05,375.71h-9.95v-5.25c5.35-.33,10.66-.12,15.91-.13,.52,1.93,.63,17.18,.19,20.33h-4.12l-1.04-3.62c-.31,.11-.58,.11-.7,.25-4.84,5.57-13.9,5.23-19.27,2.28-5.8-3.19-8.69-8.33-9.38-14.72-.5-4.64-.16-9.24,2.07-13.52,3.65-7,10.07-10.17,17.56-9.68,3.31,.22,6.46,1.12,9.2,3.1,3.36,2.43,5.18,5.75,5.62,10.02h-6.57c-.16-.34-.38-.75-.53-1.18-.98-2.85-2.87-4.81-5.78-5.57-6.24-1.63-11.3,.62-13.51,6.62-1.94,5.26-1.82,10.48,.7,15.55,3.32,6.69,11.75,7.01,16.25,3.52,2.45-1.9,3.26-4.57,3.35-8Z"/><path class="cls-1" d="M427.3,371.55c-.26,6.18-1.81,11.39-6.18,15.48-2.66,2.49-5.77,3.95-9.35,4.41-4.84,.62-9.36-.16-13.43-3.05-3.7-2.63-5.9-6.28-6.95-10.57-1.62-6.62-1.06-13.03,2.95-18.76,4.03-5.76,9.77-8.02,16.65-7.32,7.19,.73,12.04,4.7,14.7,11.34,.62,1.54,.98,3.19,1.29,4.82,.25,1.32,.25,2.69,.33,3.64Zm-18.44-13.98c-3.47-.19-6.23,1.19-8.26,3.93-3.96,5.34-3.95,14.75-.13,20.07,2.47,3.43,5.93,4.72,10.05,4.13,4.74-.68,7.42-3.71,8.8-8.06,1.08-3.41,1.19-6.88,.46-10.38-1.35-6.46-5.88-10.12-10.92-9.69Z"/><path class="cls-1" d="M30.26,377.77c2.18,0,4.01,0,5.83,0,.75,0,1.12,.36,1.31,1.1,1.32,5.17,4.64,7.55,9.94,6.99,1.4-.15,2.82-.55,4.14-1.08,2.07-.84,3.01-2.64,2.99-4.76-.02-2.12-1.23-3.59-3.3-4.2-2.67-.79-5.37-1.51-8.05-2.27-1.61-.45-3.25-.84-4.82-1.39-3.68-1.3-6.09-3.81-6.56-7.76-.49-4.11,.86-7.57,4.32-10.01,3.35-2.36,7.19-2.97,11.18-2.71,3.23,.21,6.3,1.1,8.9,3.14,2.87,2.25,4.27,5.21,4.27,9.02h-6.74c-.11-.12-.26-.22-.29-.35-.96-4.21-2.87-5.86-7.14-5.87-1.57,0-3.19,.2-4.69,.65-1.74,.52-2.8,1.91-2.83,3.76-.03,1.8,.78,3.29,2.5,3.99,1.62,.66,3.29,1.18,4.97,1.66,2.45,.7,4.93,1.31,7.4,1.96,4.54,1.2,7.43,4.73,7.81,8.68,.5,5.32-1.69,9.38-6.39,11.47-6.26,2.78-12.63,2.75-18.67-.54-4.27-2.33-6.02-6.34-6.08-11.46Z"/><path class="cls-1" d="M1002.91,363.97h-6.97c-.25-2.43-1.04-4.39-3.18-5.44-2.89-1.42-5.89-1.39-8.81-.24-1.54,.61-2.51,1.84-2.59,3.69-.08,1.82,.62,3.12,2.2,3.9,1.06,.53,2.19,.96,3.33,1.28,3.07,.87,6.19,1.58,9.25,2.49,4.7,1.39,7.43,4.58,7.81,8.91,.43,4.95-1.71,9.12-6.18,11.14-6.23,2.81-12.59,2.87-18.68-.36-4.4-2.33-6.23-6.35-6.29-11.43h6.92c.07,.34,.19,.7,.22,1.06,.24,3.28,2.11,5.24,5.11,6.2,3.06,.99,6.13,1.07,9.08-.45,2.55-1.31,3.55-3.92,2.52-6.44-.64-1.57-2.02-2.26-3.48-2.69-3.13-.93-6.31-1.71-9.45-2.6-1.3-.37-2.59-.79-3.84-1.3-7.2-2.95-7.25-12.68-1.94-16.83,3.53-2.76,7.64-3.51,11.97-3.18,3.82,.29,7.37,1.36,10.09,4.32,1.97,2.15,3.02,4.64,2.94,7.96Z"/><path class="cls-1" d="M806.88,352.64c9.18-.13,18.31-.13,27.54,0v5.95h-20.42c-.21,3.21-.07,6.2-.1,9.45h18.75c.05,1.15,.1,2.06,.11,2.98,.02,.87,0,1.75,0,2.97-3.19,.02-6.27,.04-9.36,.05-3.03,0-6.06,0-9.42,0-.19,3.47-.05,6.85-.08,10.58,3.56,.13,6.96,.05,10.36,.06,3.34,.02,6.69,0,10.22,0v5.97h-27.61v-38.02Z"/><path class="cls-1" d="M369.12,363.89h-6.62c-.13-.47-.25-.91-.35-1.35-.57-2.39-2.05-3.97-4.4-4.58-2.34-.61-4.73-.73-7.05,.17-2.07,.81-3.12,2.22-3.08,4.1,.04,1.99,1.14,3.33,2.91,3.99,2.01,.74,4.1,1.29,6.17,1.88,1.76,.5,3.54,.97,5.32,1.4,4.7,1.14,7.99,4.21,8.4,9.45,.32,4.16-1.45,8.66-6.61,10.92-5.66,2.48-11.51,2.53-17.2,.08-5.08-2.18-7.29-6.38-7.45-12.09,2.27-.21,4.45-.13,6.73-.04,.17,.65,.37,1.24,.49,1.84,.52,2.78,2.21,4.55,4.81,5.45,3.13,1.07,6.28,1.14,9.3-.37,2.25-1.13,3.28-3.38,2.72-5.81-.37-1.62-1.48-2.63-3.04-3.08-3.37-.97-6.75-1.89-10.13-2.83-2.16-.6-4.29-1.27-6.09-2.69-4.69-3.69-4.43-11.66,.22-15.35,3.58-2.85,7.76-3.61,12.17-3.32,2.72,.18,5.38,.83,7.68,2.4,3.36,2.3,5.43,5.3,5.11,9.8Z"/><path class="cls-1" d="M869.01,363.84h-6.62c-.16-.42-.41-.84-.49-1.3-.43-2.51-2.02-4.13-4.35-4.54-2.15-.38-4.46-.37-6.61-.02-2.2,.36-3.41,2.14-3.46,4.02-.05,2.08,.86,3.51,3.1,4.32,2.09,.76,4.28,1.28,6.43,1.87,1.77,.49,3.56,.9,5.32,1.42,4.16,1.23,7.03,3.79,7.71,8.21,.7,4.54-.68,8.39-4.6,11.03-3.98,2.68-8.51,3.06-13.11,2.63-1.8-.17-3.63-.63-5.32-1.29-4.74-1.86-7.35-5.41-7.85-10.5-.05-.55-.14-1.09-.23-1.8h6.87c.1,.47,.22,.98,.31,1.5,.48,2.76,2.04,4.63,4.65,5.61,2.95,1.11,5.93,1.19,8.89,.07,2.33-.88,3.52-2.61,3.51-4.89-.01-2.24-1.02-3.71-3.55-4.51-3.19-1-6.45-1.79-9.68-2.65-2.25-.6-4.44-1.29-6.29-2.79-4.57-3.69-4.31-11.78,.62-15.48,3.58-2.69,7.69-3.43,12.01-3.07,3.3,.27,6.44,1.14,9,3.43,2.57,2.29,3.97,5.07,3.73,8.71Z"/><path class="cls-1" d="M501.03,363.86h-6.65c-.16-.43-.39-.86-.47-1.31-.5-2.7-2.26-4.19-4.79-4.71-2.2-.46-4.45-.55-6.61,.3-1.68,.66-2.88,1.79-3.04,3.65-.16,1.95,.75,3.45,2.54,4.21,1.61,.68,3.29,1.2,4.97,1.68,2.45,.7,4.94,1.27,7.39,1.97,4.39,1.25,7.37,4.55,7.72,8.48,.5,5.55-1.42,9.15-5.76,11.35-6.07,3.07-12.38,3.06-18.47,.17-4.27-2.02-6.55-5.7-6.74-10.51-.01-.38,.09-.76,.15-1.25h6.39c.14,.26,.25,.39,.27,.53,.8,6.01,4.75,7.19,9.19,7.46,1.92,.12,3.82-.29,5.52-1.3,1.82-1.08,2.66-2.71,2.52-4.8-.15-2.07-1.34-3.41-3.27-3.98-3.75-1.11-7.54-2.05-11.27-3.19-1.5-.46-3-1.1-4.34-1.93-2.49-1.54-3.66-3.92-3.74-6.84-.18-6.01,2.78-9.97,8.66-11.49,5.33-1.38,10.46-.99,15.17,2.09,3.1,2.02,4.74,5.33,4.67,9.42Z"/><path class="cls-1" d="M669.22,352.75h6.84v37.83c-2.17,.45-4.28,.22-6.71,.16v-17.04h-16.94v16.94h-6.94v-37.9h6.86v14.8h16.9v-14.79Z"/><path class="cls-1" d="M876.5,352.69h6.53c.04,.96,.11,1.81,.11,2.66,0,6.07-.03,12.13,.02,18.2,.02,1.9,.14,3.82,.41,5.7,.43,3.05,2.12,5.15,5.19,5.86,2.52,.58,5.13,.72,7.53-.34,3.35-1.49,4.28-4.52,4.29-7.9,.03-7.1,0-14.21,0-21.31,0-.87,0-1.73,0-2.8h7.03c0,.94,0,1.8,0,2.66,0,7.26-.05,14.53,.01,21.79,.06,7.66-4.21,13.73-13.93,14.39-2.8,.19-5.59-.01-8.28-.88-5.36-1.72-8.89-5.91-9.07-11.93-.26-8.37-.05-16.76-.04-25.14,0-.23,.09-.47,.19-.96Z"/><path class="cls-1" d="M318.82,364.83h-6.79c-.42-.94-.8-1.9-1.28-2.81-1.46-2.77-3.81-4.18-6.91-4.44-6.42-.54-9.92,2.91-11.55,7.89-1.49,4.57-1.32,9.12,.46,13.57,2.07,5.16,6.97,7.74,12.13,6.52,2.56-.61,4.52-2.05,5.61-4.44,.72-1.57,1.19-3.27,1.9-5.28h6.26c0,1.03,.1,1.89-.02,2.71-1.04,7.11-7.25,12.72-14.44,13.05-3.98,.19-7.76-.42-11.23-2.57-4.83-2.99-7.34-7.53-8.26-12.88-.83-4.84-.51-9.68,1.62-14.28,4.82-10.39,18.65-13.71,27.63-6.55,2.94,2.35,4.55,5.43,4.84,9.5Z"/><path class="cls-1" d="M148.22,390.74h-7.42c-1.2-3.27-2.39-6.54-3.61-9.88h-14.75c-1.18,3.25-2.37,6.53-3.57,9.83h-7.25c.81-2.2,1.53-4.21,2.29-6.2,3.82-9.96,7.66-19.92,11.49-29.88q.77-2.01,2.93-2.04c.32,0,.64,0,.96,0,5.47,.1,4-.73,5.86,3.99,4.15,10.52,8.15,21.1,12.2,31.65,.28,.73,.51,1.48,.87,2.53Zm-23.8-15.5h10.86c-1.79-5.09-3.5-9.99-5.22-14.9l-.42,.05-5.22,14.85Z"/><path class="cls-1" d="M730.82,369.14c1.76-3.01,3.29-5.6,4.81-8.2,1.37-2.34,2.79-4.65,4.08-7.03,.53-.97,1.13-1.41,2.24-1.37,1.97,.07,3.95,.02,6.27,.02-.42,.88-.63,1.44-.94,1.94-3.88,6.32-7.74,12.65-11.69,18.92-.98,1.55-1.45,3.09-1.4,4.93,.1,3.27,.04,6.54,.02,9.81,0,.78-.07,1.56-.11,2.49h-6.88c-.07-.61-.18-1.22-.19-1.83-.02-3.59-.08-7.18,.02-10.77,.05-1.69-.43-3.08-1.3-4.48-4.01-6.42-7.97-12.88-11.94-19.32-.25-.4-.46-.82-.89-1.58,2.68-.21,5.12-.22,7.54,.01,.52,.05,1.07,.87,1.41,1.45,2.51,4.16,4.98,8.35,7.46,12.53,.4,.68,.81,1.36,1.47,2.46Z"/><path class="cls-1" d="M969.82,352.72c.08,.53,.18,.92,.18,1.31,.02,1.43,0,2.86,0,4.6h-11.92v32h-7.08v-31.92h-11.86v-5.99h30.66Z"/><path class="cls-1" d="M712.08,352.73v5.88c-3.9,.23-7.78-.03-11.86,.16v31.76c-2.33,.52-4.44,.26-6.91,.21-.04-5.39-.01-10.71-.02-16.02,0-5.25,0-10.5,0-15.99h-11.83v-6h30.62Z"/><path class="cls-1" d="M183.93,390.55v-37.81h7.06c0,5.31,0,10.54,0,15.77,0,5.25,0,10.5,0,16.06,6.42,.31,12.68-.06,19.06,.21v5.63c-1.67,.51-23,.64-26.12,.14Z"/><path class="cls-1" d="M916.13,352.74h6.83v31.55c2.19,.73,4.27,.31,6.3,.38,2.16,.07,4.32,.02,6.48,.02h6.31v5.75c-1.66,.48-22.13,.63-25.91,.17v-37.87Z"/><path class="cls-1" d="M152.56,390.82v-38.08h6.89v31.53c2.19,.75,4.26,.32,6.29,.39,2.16,.08,4.32,.02,6.48,.02h6.32v6.08c-8.56,.12-17.14,.03-25.98,.06Z"/><path class="cls-1" d="M383.79,390.73h-6.66c-.51-1.69-.7-33.96-.21-37.96h6.87v37.96Z"/><path class="cls-1" d="M595.41,352.74v38.08h-6.89v-38.08h6.89Z"/><path class="cls-1" d="M332.51,390.82c-1.64,0-3.15,0-4.65,0-.62,0-1.25-.05-2.01-.09v-37.94c.62-.08,1.16-.2,1.71-.21,1.59-.03,3.17,0,4.69,0,.57,1.9,.77,33.69,.27,38.25Z"/><path class="cls-1" d="M231.33,352.72h6.72v37.9h-6.72v-37.9Z"/><path class="cls-1" d="M515.92,383.42v7.26h-7.55v-7.26h7.55Z"/><path class="cls-1" d="M1017.72,383.43v7.23h-7.54v-7.23h7.54Z"/><path class="cls-2" d="M775.68,358.05c4.37,.19,8.5,.24,12.62,.59,2.58,.22,3.9,1.93,4,4.52,.02,.4,.01,.8,0,1.2-.09,3.06-1.5,4.98-4.52,5.17-3.96,.26-7.95,.06-12.1,.06v-11.54Z"/><path class="cls-2" d="M408.86,357.58c5.03-.43,9.56,3.23,10.92,9.69,.73,3.5,.62,6.97-.46,10.38-1.38,4.35-4.07,7.39-8.8,8.06-4.12,.59-7.58-.7-10.05-4.13-3.82-5.31-3.83-14.73,.13-20.07,2.03-2.74,4.79-4.12,8.26-3.93Z"/><path class="cls-2" d="M124.42,375.24l5.22-14.85,.42-.05c1.72,4.9,3.44,9.8,5.22,14.9h-10.86Z"/></g><g><path class="cls-2" d="M1095.73,4.18c10.49,0,18.99,8.51,18.99,19,0,10.49-8.52,19-19,18.99-10.49-.01-18.99-8.52-18.98-19,.01-10.49,8.51-18.98,18.99-18.98Zm0,34.13c8.35,0,15.13-6.77,15.14-15.12,0-8.36-6.77-15.14-15.13-15.14-8.35,0-15.13,6.77-15.14,15.12,0,8.36,6.77,15.14,15.13,15.15Z"/><path class="cls-2" d="M1087.42,12.8c.06,0,.09,0,.13,0,2.69,0,5.39,0,8.08,0,1.3,0,2.6,.14,3.84,.57,.81,.28,1.55,.68,2.14,1.31,.64,.68,.97,1.51,1.11,2.43,.15,1.01,.14,2.02-.15,3.01-.38,1.32-1.25,2.23-2.46,2.83-.34,.17-.7,.3-1.06,.45,.45,.12,.87,.32,1.25,.59,.72,.52,1.26,1.2,1.67,1.97,.56,1.03,1.08,2.09,1.61,3.14,.57,1.13,1.13,2.27,1.69,3.4,.03,.05,.05,.1,.08,.18-.06,0-.11,0-.16,0-1.71,0-3.42,0-5.12,0-.12,0-.18-.04-.23-.14-.83-1.68-1.65-3.37-2.49-5.05-.19-.38-.43-.74-.67-1.09-.48-.69-1.15-1.1-1.98-1.18-.71-.07-1.42-.06-2.15-.08v7.53h-5.12V12.8Zm5.12,8.82c.88,0,1.74,.01,2.6,0,.31,0,.63-.07,.93-.14,.77-.19,1.3-.65,1.51-1.44,.16-.64,.17-1.28,0-1.92-.18-.69-.6-1.17-1.29-1.37-.3-.09-.62-.17-.93-.18-.93-.03-1.85-.03-2.78-.04-.01,0-.03,0-.05,.02v5.08Z"/></g></svg>